<svg width="147" height="24" viewBox="0 0 147 24" fill="none" xmlns="http://www.w3.org/2000/svg">
<path fill-rule="evenodd" clip-rule="evenodd" d="M0 23.0518L5.12059 0H14.2619L14.6792 12.8776L20.8328 0H29.9958L24.8543 23.0518H18.2173L20.9641 10.6577L14.7896 23.0518H10.0204L9.77863 10.6577L6.70226 23.0518H0ZM30.7879 3.75721H36.9624L37.7972 0H31.6001L30.7879 3.75721ZM32.6774 23.0744L26.4586 23.0518L30.2601 5.97708H36.479L32.6774 23.0744ZM56.2353 5.97708H61.795L61.3115 8.08654C62.081 7.14139 63.0036 6.54836 64.1688 6.15273C65.1039 5.84123 66.0838 5.68526 67.0695 5.69103L65.6409 11.2507C65.2896 11.2507 60.9828 10.4151 59.642 16.9861L58.2578 23.0727H52.3894L56.2353 5.97708Z" fill="white"/>
<path fill-rule="evenodd" clip-rule="evenodd" d="M52.9836 16.7453C52.9836 16.8766 51.028 23.7328 42.4354 23.558C30.9196 23.3163 33.9089 4.85722 46.9839 5.51632C54.4114 5.88936 54.0383 12.0647 53.9722 12.329H47.5552C47.643 12.0873 47.863 9.53784 45.8188 9.58217C42.0172 9.69258 39.3139 19.1191 43.5111 19.2077C45.4449 19.2738 46.3466 17.0322 46.5222 16.747H52.9836V16.7453ZM108.12 23.6241C95.6161 23.0963 99.3733 4.68074 112.207 5.29634C124.272 5.88937 120.843 24.1293 108.12 23.6241ZM111.789 9.31703C107.636 8.48228 104.537 18.4591 108.495 19.2721C112.888 20.1956 115.834 10.1309 111.789 9.31703Z" fill="white"/>
<path fill-rule="evenodd" clip-rule="evenodd" d="M131.546 3.45045C129.83 3.45045 129.503 4.10955 129.217 5.40601L129.105 5.97728H132.732L133.634 1.84619H139.302L138.423 5.97728H141.346L140.49 9.91098H137.566L135.961 17.4045C135.896 17.8219 135.742 18.1949 135.896 18.6566C136.138 19.3375 138.577 19.0531 138.577 19.0531L137.633 22.965C137.633 22.965 132.666 23.5363 130.995 22.3712C130.248 21.866 129.435 20.8113 129.941 18.5479L131.852 9.93357L128.446 9.91182L125.568 23.0529H119.458L122.315 9.91182H119.172L120.051 5.97812H123.106C123.654 3.78083 124.138 2.28614 125.5 1.14359C127.369 -0.372847 132.226 0.220181 132.226 0.220181L131.546 3.45045ZM76.695 17.2071L88.297 17.1854C88.297 17.1854 87.3084 19.7565 90.9568 19.7791C93.4837 19.7791 94.4723 16.9001 91.0664 16.3071C89.5065 16.0211 83.4633 15.0098 84.145 10.3509C84.7171 6.52765 88.6935 5.18686 93.0454 5.25294C101.946 5.36251 100.276 10.5935 100.385 10.9448H94.4514C94.4514 10.9448 95.0888 8.74752 92.408 8.74752C89.969 8.74752 89.3743 10.9448 92.1872 11.5378C95.6166 12.2856 99.5503 12.4612 99.7686 16.8784C99.8338 18.1096 99.1103 23.8659 90.143 23.6911C81.9243 23.5154 81.3539 19.6478 81.573 17.8461C80.0783 20.9886 76.342 23.7797 71.3544 23.6041C58.8507 23.2084 62.6523 4.6825 75.4638 5.32069C81.2878 5.60591 83.5077 10.0231 82.8034 14.3741C82.6938 15.1437 82.6286 15.2532 82.4078 15.3193L76.695 17.2071ZM75.0021 9.29538C70.8919 8.48237 67.8163 18.4149 71.7492 19.2505C76.102 20.1522 79.0244 10.1092 75.0021 9.29538ZM144.775 5.95553C147.742 5.95553 147.742 10.3727 144.775 10.3727C141.808 10.3727 141.808 5.95553 144.775 5.95553ZM144.775 6.35116C142.292 6.35116 142.292 9.95532 144.775 9.95532C147.279 9.95532 147.279 6.35116 144.775 6.35116ZM145.17 8.41629L145.61 9.29538H145.082L144.731 8.41629H144.422L144.291 9.36145H143.829L144.203 7.01027H145.279C145.279 7.01027 145.872 7.16417 145.828 7.73544C145.764 8.41629 145.215 8.41629 145.17 8.41629ZM145.059 7.31807H144.622L144.511 8.08758H144.95C144.95 8.08758 145.389 8.15366 145.433 7.7137C145.433 7.31807 145.059 7.31807 145.059 7.31807Z" fill="white"/>
</svg>
