<svg width="167" height="30" viewBox="0 0 167 30" fill="none" xmlns="http://www.w3.org/2000/svg">
<path d="M32.945 0L26.9883 23.1417L50.13 29.0985L56.0868 5.95676L32.945 0ZM43.2244 17.3958L38.6909 16.2361L39.8507 11.7027L44.3841 12.8624L43.2244 17.3958Z" fill="white"/>
<path d="M15.6035 2.58301C21.613 2.58301 24.3015 6.1676 24.3015 9.7522C24.3015 11.9662 23.3526 13.8112 21.5603 15.0237C24.1433 17.923 25.672 21.8766 26.1992 26.4627H15.2345C14.7601 20.137 13.4422 17.6067 10.5956 17.6067V26.4627H0V2.58301H15.6035ZM10.5956 12.1244H10.8592C12.8097 12.1244 13.7058 11.4391 13.7058 9.85763C13.7058 8.85605 13.1787 7.48547 11.2282 7.48547H10.5956V12.1244Z" fill="white"/>
<path d="M73.5354 2.58301C81.2845 2.58301 82.8132 6.48389 82.8132 9.27777C82.8132 11.2282 82.1279 13.0205 79.703 14.3911C82.7078 15.9725 83.4458 17.8175 83.4458 19.8734C83.4458 23.5634 80.8628 26.4627 75.275 26.4627H58.6172V2.58301H73.5354ZM69.1601 12.0716H69.4237C71.7431 12.0716 72.5866 11.4391 72.5866 9.7522C72.5866 8.43433 71.954 7.43276 69.7927 7.43276H69.1601V12.0716ZM69.1601 21.244H69.4764C71.9013 21.244 72.8501 20.5587 72.8501 18.7664C72.8501 17.185 72.1121 16.078 69.8981 16.078H69.1601V21.244Z" fill="white"/>
<path d="M86.6641 2.58301H97.2597V20.4533H106.537V26.4627H86.6641V2.58301Z" fill="white"/>
<path d="M109.75 2.58301V26.4627H133.63V2.58301H109.75ZM124.036 16.8687H119.344V12.2298H123.983V16.8687H124.036Z" fill="white"/>
<path d="M136.477 2.58301H148.021L151.553 6.95832L154.927 2.58301H166.418L157.352 14.3384L166.998 26.5155H155.401L151.606 21.7711L147.968 26.5155H136.477L145.807 14.4438L136.477 2.58301Z" fill="white"/>
</svg>
